# xmcd
#
# Track frame offsets:
#	150
#	15751
#	28311
#	41371
#	54244
#	68865
#	81754
#	96560
#	120319
#	140814
#	154494
#	170778
#	188898
#	209582
#
# Disc length: 2939 seconds
#
# Revision: 1
# Processed by: cddbd v1.5.2PL0 Copyright (c) Steve Scherf et al.
# Submitted via: audiograbber 1.83.01
#
DISCID=c50b790e
DTITLE=Jeremy Vannereau - Tango Madame
DYEAR=2008
DGENRE=
TTITLE0=colere
TTITLE1=valse a midinette
TTITLE2=comme il faut
TTITLE3=milonguitarra
TTITLE4=odala
TTITLE5=rie payaso
TTITLE6=valse des ombres
TTITLE7=autour de minuit
TTITLE8=tango nomade
TTITLE9=valsetto
TTITLE10=calexico
TTITLE11=el choclo
TTITLE12=oblivion
TTITLE13=milonga sentimental
EXTD=
EXTT0=
EXTT1=
EXTT2=
EXTT3=
EXTT4=
EXTT5=
EXTT6=
EXTT7=
EXTT8=
EXTT9=
EXTT10=
EXTT11=
EXTT12=
EXTT13=
PLAYORDER=
